<svg width="39" height="29" viewBox="0 0 39 29" fill="none" xmlns="http://www.w3.org/2000/svg">
<g id="Mx">
<g id="Rectangle">
<rect x="0.762695" width="38.2136" height="28.7911" rx="2.13" fill="white"/>
<rect x="1.2627" y="0.5" width="37.2136" height="27.7911" rx="1.63" stroke="#9DADBC" stroke-opacity="0.36"/>
</g>
<g id="Group">
<path id="Vector" fill-rule="evenodd" clip-rule="evenodd" d="M10 5H29V24H10V5Z" fill="#2F6EB7"/>
<path id="Vector_2" fill-rule="evenodd" clip-rule="evenodd" d="M16.9139 20.9917V14.1833H29.0001V16.0833L27.6278 17.5611L29.0001 19.0917V20.9917H26.7834L25.5695 19.6722L24.4084 20.9917H16.9139Z" fill="white"/>
<path id="Vector_3" fill-rule="evenodd" clip-rule="evenodd" d="M17.7056 20.2528V14.9222H22.1917V16.1361H19.1833V16.9805H22.1389V18.1944H19.1833V18.9861H22.1917V20.2528H17.7056Z" fill="#2F6EB7"/>
<path id="Vector_4" fill-rule="evenodd" clip-rule="evenodd" d="M22.1917 20.2528L24.6722 17.5611L22.1917 14.9222H24.0917L25.6222 16.6111L27.1528 14.9222H29V14.975L26.5722 17.5611L29 20.1472V20.2528H27.1528L25.6222 18.5111L24.0389 20.2528H22.1917Z" fill="#2F6EB7"/>
<path id="Vector_5" fill-rule="evenodd" clip-rule="evenodd" d="M17.4417 8.11391H20.3972L21.4 10.4361V8.11391H25.0417L25.6222 9.85557L26.2556 8.11391H29V14.9222H14.4333L17.4417 8.11391Z" fill="white"/>
<path id="Vector_6" fill-rule="evenodd" clip-rule="evenodd" d="M18.0222 8.85277L15.6472 14.1833H17.2833L17.7055 13.1278H20.1333L20.5555 14.1833H22.1917L19.8694 8.85277H18.0222ZM18.2333 11.9139L18.9194 10.225L19.6056 11.9139H18.2333Z" fill="#2F6EB7"/>
<path id="Vector_7" fill-rule="evenodd" clip-rule="evenodd" d="M22.1917 14.1833V8.85277H24.4611L25.675 12.125L26.8361 8.85277H29V14.1833H27.6278V10.5417L26.2555 14.1833H24.9889L23.6167 10.5417V14.1833H22.1917Z" fill="#2F6EB7"/>
</g>
</g>
</svg>
