<?xml version="1.0" encoding="UTF-8"?>
<svg width="52px" height="40px" viewBox="0 0 52 40" version="1.1" xmlns="http://www.w3.org/2000/svg" xmlns:xlink="http://www.w3.org/1999/xlink">
    <!-- Generator: Sketch 58 (84663) - https://sketch.com -->
    <title>Master</title>
    <desc>Created with Sketch.</desc>
    <g id="Hotel_User_part_UI" stroke="none" stroke-width="1" fill="none" fill-rule="evenodd">
        <g id="Search_Results_modify_01" transform="translate(-566.000000, -1938.000000)">
            <g id="Navigation/Footers/v1" transform="translate(0.000000, 1629.000000)">
                <g id="Footer">
                    <g id="Details" transform="translate(165.000000, 271.000000)">
                        <g id="Links" transform="translate(285.000000, 0.000000)">
                            <g id="Group-5" transform="translate(0.000000, 38.000000)">
                                <g id="Master" transform="translate(116.000000, 0.000000)">
                                    <rect id="Rectangle" stroke-opacity="0.36" stroke="#9DADBC" fill="#FFFFFF" x="0.5" y="0.5" width="50.8299984" height="38.0499988" rx="2.12999994"></rect>
                                    <g id="Mastercard-logo" transform="translate(9.000000, 6.000000)" fill-rule="nonzero">
                                        <g id="Group" transform="translate(17.697665, 24.675240) scale(-1, 1) rotate(-180.000000) translate(-17.697665, -24.675240) translate(1.697665, 22.175240)" fill="#231F20">
                                            <path d="M31.0671529,0.647232353 L31.0671529,0.580567421 L31.12864,0.580567421 C31.1422319,0.580567421 31.1538821,0.583803582 31.1622961,0.588981441 C31.1700629,0.5941593 31.1745935,0.603220553 31.1745935,0.614223503 C31.1745935,0.625226453 31.1700629,0.633640474 31.1622961,0.638818332 C31.1538821,0.644643424 31.1422319,0.647232353 31.12864,0.647232353 L31.0671529,0.647232353 Z M31.1292872,0.693833082 C31.1610016,0.693833082 31.1855965,0.686713526 31.2030717,0.672474415 C31.220547,0.658235303 31.228961,0.638818332 31.228961,0.614223503 C31.228961,0.593512068 31.2224887,0.576684026 31.2082496,0.563092147 C31.1946577,0.5501475 31.1752407,0.541733479 31.1493515,0.538497318 L31.2309027,0.444648626 L31.167474,0.444648626 L31.0917478,0.537850085 L31.0671529,0.537850085 L31.0671529,0.444648626 L31.0140799,0.444648626 L31.0140799,0.693833082 L31.1292872,0.693833082 Z M31.1131064,0.358566724 C31.1422319,0.358566724 31.1694157,0.364391815 31.1940105,0.375394765 C31.2192525,0.386397715 31.2412584,0.401284059 31.2600282,0.420053797 C31.2787979,0.438823535 31.2936843,0.460829435 31.3046872,0.486718729 C31.3150429,0.511960791 31.320868,0.53914455 31.320868,0.568270006 C31.320868,0.597395462 31.3150429,0.624579221 31.3046872,0.649821282 C31.2936843,0.675063344 31.2787979,0.697716476 31.2600282,0.716486215 C31.2412584,0.735255953 31.2192525,0.750142297 31.1940105,0.761145247 C31.1694157,0.771500965 31.1422319,0.776678824 31.1131064,0.776678824 C31.083981,0.776678824 31.05615,0.771500965 31.0309079,0.761145247 C31.0050186,0.750142297 30.9823655,0.735255953 30.9635958,0.716486215 C30.944826,0.697716476 30.9299397,0.675063344 30.919584,0.649821282 C30.908581,0.624579221 30.9034032,0.597395462 30.9034032,0.568270006 C30.9034032,0.53914455 30.908581,0.511960791 30.919584,0.486718729 C30.9299397,0.460829435 30.944826,0.438823535 30.9635958,0.420053797 C30.9823655,0.401284059 31.0050186,0.386397715 31.0309079,0.375394765 C31.05615,0.364391815 31.083981,0.358566724 31.1131064,0.358566724 M31.1131064,0.836871432 C31.1512931,0.836871432 31.1862437,0.829751876 31.2198998,0.815512765 C31.2529086,0.801920885 31.2813869,0.782503915 31.3066289,0.757909085 C31.3312237,0.733961488 31.3506407,0.705483265 31.3648798,0.672474415 C31.3791189,0.640112797 31.3862385,0.60516225 31.3862385,0.568270006 C31.3862385,0.531377762 31.3791189,0.496427215 31.3648798,0.464065597 C31.3506407,0.431703979 31.3312237,0.403225756 31.3066289,0.378630926 C31.2813869,0.354683329 31.2529086,0.335266359 31.2198998,0.321027247 C31.1862437,0.306788135 31.1512931,0.299668579 31.1131064,0.299668579 C31.0742725,0.299668579 31.0386747,0.306788135 31.0050186,0.321027247 C30.9713626,0.335266359 30.9422371,0.354683329 30.9176423,0.378630926 C30.8930474,0.403225756 30.8736305,0.431703979 30.8593914,0.464065597 C30.8451522,0.496427215 30.8380327,0.531377762 30.8380327,0.568270006 C30.8380327,0.60516225 30.8451522,0.640112797 30.8593914,0.672474415 C30.8736305,0.705483265 30.8930474,0.733961488 30.9176423,0.757909085 C30.9422371,0.782503915 30.9713626,0.801920885 31.0050186,0.815512765 C31.0386747,0.829751876 31.0742725,0.836871432 31.1131064,0.836871432 M5.89628674,1.79671701 C5.89628674,2.27178556 6.2076055,2.66206667 6.71633013,2.66206667 C7.20240162,2.66206667 7.53054843,2.2886136 7.53054843,1.79671701 C7.53054843,1.30482042 7.20240162,0.931367356 6.71633013,0.931367356 C6.2076055,0.931367356 5.89628674,1.32164846 5.89628674,1.79671701 M8.08457932,1.79671701 L8.08457932,3.14813816 L7.49689234,3.14813816 L7.49689234,2.81999136 C7.31048943,3.06335073 7.02764889,3.21609756 6.64319287,3.21609756 C5.88528379,3.21609756 5.29112449,2.62193826 5.29112449,1.79671701 C5.29112449,0.970848529 5.88528379,0.377336462 6.64319287,0.377336462 C7.02764889,0.377336462 7.31048943,0.530083297 7.49689234,0.773442662 L7.49689234,0.445295859 L8.08457932,0.445295859 L8.08457932,1.79671701 Z M27.9442568,1.79671701 C27.9442568,2.27178556 28.2555756,2.66206667 28.7643002,2.66206667 C29.251019,2.66206667 29.5785185,2.2886136 29.5785185,1.79671701 C29.5785185,1.30482042 29.251019,0.931367356 28.7643002,0.931367356 C28.2555756,0.931367356 27.9442568,1.32164846 27.9442568,1.79671701 M30.1331967,1.79671701 L30.1331967,4.23354682 L29.5448624,4.23354682 L29.5448624,2.81999136 C29.3584595,3.06335073 29.075619,3.21609756 28.691163,3.21609756 C27.9332539,3.21609756 27.3390946,2.62193826 27.3390946,1.79671701 C27.3390946,0.970848529 27.9332539,0.377336462 28.691163,0.377336462 C29.075619,0.377336462 29.3584595,0.530083297 29.5448624,0.773442662 L29.5448624,0.445295859 L30.1331967,0.445295859 L30.1331967,1.79671701 Z M15.3795352,2.68989766 C15.7581661,2.68989766 16.0015255,2.45236339 16.0636598,2.03425129 L14.6611073,2.03425129 C14.7238888,2.42453239 14.9607758,2.68989766 15.3795352,2.68989766 M15.3911854,3.21609756 C14.598973,3.21609756 14.0449421,2.63941354 14.0449421,1.79671701 C14.0449421,0.937192447 14.6216261,0.377336462 15.4306665,0.377336462 C15.8377757,0.377336462 16.2105815,0.478951941 16.5387283,0.755967388 L16.2507099,1.19155476 C16.0241786,1.01097694 15.735513,0.908714224 15.4643226,0.908714224 C15.0856917,0.908714224 14.7407168,1.08411419 14.6559294,1.57083292 L16.6629969,1.57083292 C16.668822,1.64397018 16.6746471,1.71775466 16.6746471,1.79671701 C16.668822,2.63941354 16.1484472,3.21609756 15.3911854,3.21609756 M22.4874409,1.79671701 C22.4874409,2.27178556 22.7987596,2.66206667 23.3074843,2.66206667 C23.7935558,2.66206667 24.1217026,2.2886136 24.1217026,1.79671701 C24.1217026,1.30482042 23.7935558,0.931367356 23.3074843,0.931367356 C22.7987596,0.931367356 22.4874409,1.32164846 22.4874409,1.79671701 M24.6757335,1.79671701 L24.6757335,3.14813816 L24.0880465,3.14813816 L24.0880465,2.81999136 C23.9009963,3.06335073 23.618803,3.21609756 23.234347,3.21609756 C22.4764379,3.21609756 21.8822786,2.62193826 21.8822786,1.79671701 C21.8822786,0.970848529 22.4764379,0.377336462 23.234347,0.377336462 C23.618803,0.377336462 23.9009963,0.530083297 24.0880465,0.773442662 L24.0880465,0.445295859 L24.6757335,0.445295859 L24.6757335,1.79671701 Z M19.1684334,1.79671701 C19.1684334,0.976673621 19.7392923,0.377336462 20.610467,0.377336462 C21.0175762,0.377336462 21.2887666,0.467948991 21.58261,0.699658174 L21.3004167,1.17472672 C21.0797105,1.01615479 20.8480013,0.931367356 20.5929918,0.931367356 C20.1237483,0.937192447 19.7787735,1.2763422 19.7787735,1.79671701 C19.7787735,2.31709182 20.1237483,2.65624158 20.5929918,2.66206667 C20.8480013,2.66206667 21.0797105,2.57727923 21.3004167,2.4187073 L21.58261,2.89377585 C21.2887666,3.12548503 21.0175762,3.21609756 20.610467,3.21609756 C19.7392923,3.21609756 19.1684334,2.6167604 19.1684334,1.79671701 M26.7455825,3.21609756 C26.4064328,3.21609756 26.1857265,3.05752564 26.0329797,2.81999136 L26.0329797,3.14813816 L25.4504706,3.14813816 L25.4504706,0.445295859 L26.0388048,0.445295859 L26.0388048,1.9604668 C26.0388048,2.40770435 26.2310328,2.65624158 26.6154888,2.65624158 C26.7345796,2.65624158 26.8588482,2.63941354 26.9831168,2.58828218 L27.1643419,3.14231307 C27.0342482,3.19344443 26.8646733,3.21609756 26.7455825,3.21609756 M10.9912998,2.93325702 C10.7084593,3.11965994 10.3188254,3.21609756 9.88906312,3.21609756 C9.20429129,3.21609756 8.76352606,2.88795076 8.76352606,2.35074791 C8.76352606,1.90998267 9.09167286,1.63814509 9.69618788,1.55335765 L9.97385056,1.51387647 C10.2961723,1.46857021 10.4482719,1.38378277 10.4482719,1.23103594 C10.4482719,1.02197989 10.2333907,0.902889132 9.83210667,0.902889132 C9.42499752,0.902889132 9.13115404,1.03298284 8.93310094,1.18572967 L8.65608549,0.728136397 C8.9784072,0.490602124 9.38551635,0.377336462 9.82628158,0.377336462 C10.6068438,0.377336462 11.0592592,0.744964438 11.0592592,1.25951416 C11.0592592,1.73458271 10.7032814,1.98311993 10.1149472,2.06790737 L9.83793176,2.10803577 C9.58356945,2.14169186 9.37969126,2.19217598 9.37969126,2.37340104 C9.37969126,2.57145414 9.57191927,2.68989766 9.89424098,2.68989766 C10.2392158,2.68989766 10.5731877,2.55980396 10.7369375,2.45818848 L10.9912998,2.93325702 Z M18.5742741,3.21609756 C18.2351243,3.21609756 18.0144181,3.05752564 17.8623185,2.81999136 L17.8623185,3.14813816 L17.2798094,3.14813816 L17.2798094,0.445295859 L17.8674963,0.445295859 L17.8674963,1.9604668 C17.8674963,2.40770435 18.0597243,2.65624158 18.4441804,2.65624158 C18.5632711,2.65624158 18.6875397,2.63941354 18.8118083,2.58828218 L18.9930334,3.14231307 C18.8629397,3.19344443 18.6933648,3.21609756 18.5742741,3.21609756 M13.5588706,3.14813816 L12.5977305,3.14813816 L12.5977305,3.96818156 L12.0035712,3.96818156 L12.0035712,3.14813816 L11.4553654,3.14813816 L11.4553654,2.61093531 L12.0035712,2.61093531 L12.0035712,1.37795768 C12.0035712,0.750789529 12.2469306,0.377336462 12.9420581,0.377336462 C13.1970677,0.377336462 13.4909112,0.456298809 13.6773141,0.586392512 L13.5077392,1.08993928 C13.3323392,0.988323803 13.1401112,0.937192447 12.9873644,0.937192447 C12.6935209,0.937192447 12.5977305,1.11841751 12.5977305,1.38960786 L12.5977305,2.61093531 L13.5588706,2.61093531 L13.5588706,3.14813816 Z M4.77139691,0.445295859 L4.77139691,2.14169186 C4.77139691,2.78051019 4.36428776,3.21027247 3.70799415,3.21609756 C3.36301931,3.22192265 3.00704151,3.11448208 2.75785706,2.73520392 C2.57145414,3.0348725 2.27761065,3.21609756 1.86467641,3.21609756 C1.57601078,3.21609756 1.29381747,3.13131012 1.07311124,2.8148135 L1.07311124,3.14813816 L0.484777032,3.14813816 L0.484777032,0.445295859 L1.0782891,0.445295859 L1.0782891,1.94363876 C1.0782891,2.41288221 1.33847651,2.66206667 1.7404078,2.66206667 C2.13068891,2.66206667 2.32809477,2.40770435 2.32809477,1.94946385 L2.32809477,0.445295859 L2.92225407,0.445295859 L2.92225407,1.94363876 C2.92225407,2.41288221 3.19344443,2.66206667 3.58372554,2.66206667 C3.9850096,2.66206667 4.17723761,2.40770435 4.17723761,1.94946385 L4.17723761,0.445295859 L4.77139691,0.445295859 Z" id="Shape"></path>
                                        </g>
                                        <g id="Group" transform="translate(32.832803, 17.241181) scale(-1, 1) rotate(-180.000000) translate(-32.832803, -17.241181) translate(31.832803, 16.741181)" fill="#F79410">
                                            <path d="M1.29446471,0 L1.29446471,0.394811735 L1.19155476,0.394811735 L1.07246401,0.123621379 L0.954020488,0.394811735 L0.850463312,0.394811735 L0.850463312,0 L0.923600568,0 L0.923600568,0.297726882 L1.03492453,0.0407756382 L1.11065072,0.0407756382 L1.22197468,0.298374115 L1.22197468,0 L1.29446471,0 Z M0.641407262,2.77555756e-17 L0.641407262,0.327499571 L0.773442662,0.327499571 L0.773442662,0.394164503 L0.436881838,0.394164503 L0.436881838,0.327499571 L0.568917238,0.327499571 L0.568917238,2.77555756e-17 L0.641407262,2.77555756e-17 Z" id="Shape"></path>
                                        </g>
                                        <polygon id="Path" fill="#FF5F00" points="21.4253068 19.4395191 12.5183541 19.4395191 12.5183541 3.43216855 21.4253068 3.43216855"></polygon>
                                        <g id="Group" transform="translate(8.644307, 11.290267) scale(-1, 1) rotate(-180.000000) translate(-8.644307, -11.290267) translate(0.144307, 0.790267)" fill="#EB001B">
                                            <path d="M12.9446471,10.3557176 C12.9446471,13.6028824 14.4649959,16.4953637 16.8325718,18.3593929 C15.1012253,19.7224643 12.9161688,20.5360353 10.5414733,20.5360353 C4.91961311,20.5360353 0.362450118,15.9782251 0.362450118,10.3557176 C0.362450118,4.7332102 4.91961311,0.175399968 10.5414733,0.175399968 C12.9161688,0.175399968 15.1012253,0.988971035 16.8325718,2.35204237 C14.4649959,4.21607155 12.9446471,7.10855293 12.9446471,10.3557176" id="Path"></path>
                                        </g>
                                        <g id="Group" transform="translate(25.109898, 11.290267) scale(-1, 1) rotate(-180.000000) translate(-25.109898, -11.290267) translate(16.609898, 0.790267)" fill="#F79E1B">
                                            <path d="M16.8280412,10.3557176 C16.8280412,4.7332102 12.2708782,0.175399968 6.64901796,0.175399968 C4.27432246,0.175399968 2.08926604,0.988971035 0.357272259,2.35204237 C2.72549544,4.21607155 4.24584424,7.10855293 4.24584424,10.3557176 C4.24584424,13.6028824 2.72549544,16.4953637 0.357272259,18.3593929 C2.08926604,19.7224643 4.27432246,20.5360353 6.64901796,20.5360353 C12.2708782,20.5360353 16.8280412,15.9782251 16.8280412,10.3557176" id="Path"></path>
                                        </g>
                                    </g>
                                </g>
                            </g>
                        </g>
                    </g>
                </g>
            </g>
        </g>
    </g>
</svg>