<svg width="51" height="40" viewBox="0 0 51 40" fill="none" xmlns="http://www.w3.org/2000/svg">
<path d="M48.87 0H2.13C0.953634 0 0 0.953634 0 2.13V37.87C0 39.0464 0.953634 40 2.13 40H48.87C50.0464 40 51 39.0464 51 37.87V2.13C51 0.953634 50.0464 0 48.87 0Z" fill="white"/>
<path d="M48.87 0.5H2.13C1.22978 0.5 0.5 1.22978 0.5 2.13V37.87C0.5 38.7702 1.22978 39.5 2.13 39.5H48.87C49.7702 39.5 50.5 38.7702 50.5 37.87V2.13C50.5 1.22978 49.7702 0.5 48.87 0.5Z" stroke="#9DADBC" stroke-opacity="0.36" stroke-miterlimit="10"/>
<path d="M14.254 8H23.4584C24.7733 8 25.5346 9.03809 25.2578 10.353L20.967 28.831C20.6902 30.146 19.3753 31.184 18.0603 31.184H8.85593C7.54101 31.184 6.77975 30.146 7.05657 28.831L11.3473 10.353C11.6242 9.03809 12.9391 8 14.254 8Z" fill="#DF1F2E"/>
<path d="M22.6972 8H33.2857C34.6006 8 33.9777 9.03809 33.7009 10.353L29.4101 28.831C29.1333 30.146 29.2025 31.184 27.8876 31.184H17.2991C15.9842 31.184 15.2229 30.146 15.4997 28.831L19.7905 10.353C20.1365 9.03809 21.3822 8 22.6972 8Z" fill="#15336F"/>
<path d="M32.8705 8H42.1441C43.459 8 44.2203 9.03809 43.9434 10.353L39.6527 28.831C39.3758 30.146 38.0609 31.184 36.746 31.184H27.4724C26.1575 31.184 25.3962 30.146 25.673 28.831L29.9638 10.353C30.3098 9.03809 31.6248 8 32.8705 8Z" fill="#007C82"/>
<path fill-rule="evenodd" clip-rule="evenodd" d="M31.3479 25.3707H32.2476L32.5244 24.5403H31.6247L31.3479 25.3707ZM32.04 23.0869L31.7632 24.0558C31.7632 24.0558 32.1092 23.9174 32.2476 23.8482C32.4552 23.779 32.732 23.779 32.732 23.779L32.9397 23.0869H32.04ZM32.4552 21.6336L32.1784 22.6025C32.1784 22.6025 32.5244 22.4641 32.6628 22.3949C32.8705 22.3257 33.0781 22.3257 33.0781 22.3257L33.2857 21.6336H32.4552V21.6336ZM34.393 21.6336L33.2857 25.3707H33.5625L33.3549 26.132H33.0781L33.0089 26.3396H31.9708L32.04 26.132H29.8946L30.1022 25.4399H30.3098L31.4863 21.6336L31.694 20.8723H32.8012L32.6628 21.2876C32.6628 21.2876 32.9397 21.08 33.2165 21.0108C33.4933 20.9416 35.0851 20.9416 35.0851 20.9416L34.8774 21.7028H34.393V21.6336Z" fill="white"/>
<path d="M34.8774 20.8723H36.0539V21.2876C36.0539 21.3568 36.1231 21.426 36.2615 21.426H36.4692L36.2615 22.1181H35.6387C35.085 22.1873 34.8774 21.9104 34.8774 21.6336V20.8723Z" fill="white"/>
<path d="M35.0158 24.2634H33.9085L34.1161 23.6406H35.3619L35.5695 23.0869H34.3238L34.5314 22.3949H37.9917L37.7841 23.0869H36.6076L36.4692 23.6406H37.6457L37.438 24.2634H36.1923L35.9155 24.5403H36.4L36.5384 25.3707C36.5384 25.4399 36.5384 25.5091 36.6076 25.5091C36.6076 25.5091 36.8152 25.5783 36.8844 25.5783H37.0228L36.8152 26.3396H36.4C36.3307 26.3396 36.2615 26.3396 36.1231 26.3396C35.9847 26.3396 35.9155 26.2704 35.8463 26.2012C35.7771 26.132 35.6387 26.0628 35.6387 25.9244L35.5003 25.0939L34.9466 25.8552C34.739 26.132 34.5314 26.2704 34.1161 26.2704H33.2857L33.4933 25.5783H33.8393C33.9085 25.5783 33.9777 25.5091 34.0469 25.5091C34.1161 25.5091 34.1854 25.4399 34.1854 25.3707L35.0158 24.2634Z" fill="white"/>
<path d="M22.8356 22.5333H25.8114L25.6038 23.2253H24.4273L24.2197 23.8482H25.3962L25.1886 24.5402H24.0121L23.7353 25.5091C23.7353 25.6475 24.0121 25.6475 24.1505 25.6475L24.7734 25.5783L24.5657 26.4088H23.1816C23.0432 26.4088 22.974 26.4088 22.9048 26.3396C22.7664 26.3396 22.7664 26.2704 22.6972 26.2012C22.628 26.132 22.5588 26.0628 22.628 25.9244L23.0432 24.6094H22.3511L22.5588 23.8482H23.2508L23.4584 23.2253H22.7664L22.8356 22.5333Z" fill="white"/>
<path d="M24.8426 21.2876H26.0191L25.8114 22.0488H24.1505L23.9429 22.1873C23.8737 22.2565 23.8737 22.2565 23.7353 22.2565C23.6661 22.3257 23.4584 22.3949 23.1816 22.3949H22.628L22.8356 21.7028H22.974C23.1124 21.7028 23.1816 21.7028 23.2508 21.6336C23.32 21.6336 23.3892 21.4952 23.4584 21.426L23.7353 20.8723H24.9118L24.8426 21.2876Z" fill="white"/>
<path fill-rule="evenodd" clip-rule="evenodd" d="M27.1956 22.4641C27.1956 22.4641 27.5416 22.1873 28.0952 22.0488C28.2337 22.0488 28.9949 22.0488 28.9949 22.0488L29.1333 21.6336H27.4032L27.1956 22.4641ZM28.7873 22.8101H27.1264L26.9879 23.1561H28.4413C28.6489 23.1561 28.6489 23.1561 28.6489 23.1561L28.7873 22.8101ZM26.5727 20.8723H27.6108L27.4724 21.426C27.4724 21.426 27.8184 21.1492 28.026 21.08C28.2337 21.0108 28.7873 20.9416 28.7873 20.9416H30.4482L29.8946 22.8101C29.8254 23.1561 29.687 23.3638 29.6178 23.433C29.5486 23.5022 29.4794 23.6406 29.341 23.7098C29.2025 23.779 29.0641 23.8482 28.9257 23.8482C28.7873 23.8482 28.6489 23.8482 28.4413 23.8482H26.8495L26.3651 25.3707C26.2959 25.5092 26.2959 25.5784 26.2959 25.6476C26.2959 25.7168 26.3651 25.7168 26.4343 25.7168L27.1264 25.6476L26.9187 26.3396H26.1575C25.8806 26.3396 25.7422 26.3396 25.6038 26.3396C25.4654 26.3396 25.327 26.3396 25.2578 26.2704C25.1886 26.2012 25.0502 26.132 25.0502 26.0628C25.0502 25.9936 25.1194 25.8552 25.1194 25.6476L26.5727 20.8723Z" fill="white"/>
<path d="M29.5486 23.9174L29.4794 24.4018C29.4102 24.5403 29.4102 24.6787 29.2717 24.7479C29.1333 24.8171 28.9949 24.9555 28.7181 24.9555H28.1644V25.4399C28.1644 25.5784 28.1644 25.5784 28.2336 25.5784L28.3029 25.6476H28.5105H29.0641L28.8565 26.4088H28.2336C27.8184 26.4088 27.4724 26.4088 27.334 26.3396C27.1956 26.2704 27.1956 26.2012 27.1956 26.0628L27.2648 24.0558H28.2336V24.4711H28.4413C28.5105 24.4711 28.5797 24.4711 28.6489 24.4711C28.6489 24.4711 28.7181 24.4018 28.7181 24.3326L28.7873 23.9866H29.5486V23.9174Z" fill="white"/>
<path d="M15.2921 13.8825C15.2229 14.0209 14.6 16.9968 14.6 16.9968C14.4616 17.6196 14.3924 18.0349 14.0464 18.3117C13.8388 18.4501 13.6312 18.5193 13.3543 18.5193C12.9391 18.5193 12.6623 18.3117 12.6623 17.8965V17.758L12.8007 16.9276C12.8007 16.9276 13.4927 14.2285 13.562 13.8825C13.562 13.8825 13.562 13.8825 13.562 13.8133C12.247 13.8133 12.0394 13.8133 11.9702 13.8133L11.901 14.0209L11.2089 17.066L11.2782 17.412L11.1397 18.2425C11.1397 18.5193 11.2089 18.7269 11.2782 18.8653C11.6242 19.419 12.4547 19.4882 13.0083 19.4882C13.6312 19.4882 14.254 19.3498 14.6693 19.073C15.3613 18.6577 15.5689 17.9657 15.7073 17.412L15.7765 17.1352C15.7765 17.1352 16.4686 14.3669 16.607 13.9517C16.607 13.9517 16.607 13.9517 16.607 13.8825C15.7073 13.9517 15.4305 13.8825 15.2921 13.8825Z" fill="white"/>
<path d="M19.1677 19.419C18.6832 19.419 18.5448 19.419 17.9912 19.419V19.3498C18.0604 19.1422 18.0604 18.9346 18.1296 18.7269L18.1988 18.4501C18.268 18.0349 18.4064 17.4812 18.4064 17.3428C18.4064 17.2736 18.4756 16.9968 18.1988 16.9968C18.0604 16.9968 17.9912 17.066 17.8527 17.1352C17.7835 17.3428 17.6451 18.0349 17.5759 18.3117C17.4375 18.9346 17.4375 19.0038 17.3683 19.3498L17.2991 19.419C16.8147 19.419 16.6762 19.419 16.1226 19.419V19.3498C16.1918 19.0038 16.3302 18.5885 16.3994 18.2425C16.607 17.2044 16.6762 16.8584 16.7454 16.3047L16.8147 16.2355C17.3683 16.1663 17.5067 16.1663 18.0604 16.0279L18.1296 16.0971L17.9219 16.5124C17.9912 16.4431 18.1296 16.3739 18.1988 16.3047C18.4756 16.1663 18.7524 16.0971 18.96 16.0971C19.2369 16.0971 19.5137 16.1663 19.5829 16.4431C19.7213 16.72 19.6521 16.9968 19.4445 17.6889V18.1041C19.3061 18.7962 19.3061 18.9346 19.1677 19.419Z" fill="white"/>
<path d="M21.0362 19.419C20.7594 19.419 20.5518 19.419 20.4134 19.419C20.2057 19.419 20.0673 19.419 19.7905 19.419C19.8597 19.1422 19.9289 19.073 19.9289 18.9346C19.9981 18.8654 19.9981 18.727 20.0673 18.4501C20.1365 18.1041 20.2057 17.8273 20.2057 17.6197C20.2749 17.412 20.2749 17.2044 20.2749 16.9968C20.5518 16.9276 20.7594 16.9276 20.8978 16.9276C21.1054 16.9276 21.2438 16.8584 21.5206 16.7892C21.4514 16.9968 21.3822 17.2044 21.3822 17.4813C21.313 17.6889 21.2438 17.8965 21.2438 18.1733C21.1054 18.6578 21.1054 18.7962 21.1054 18.9346C21.1054 19.073 21.1054 19.1422 21.0362 19.419Z" fill="white"/>
<path d="M24.0121 17.8273C24.0121 17.9657 23.8737 18.3809 23.7352 18.5886C23.666 18.727 23.5276 18.7962 23.3892 18.7962C23.32 18.7962 23.1124 18.7962 23.1124 18.4501C23.1124 18.3117 23.1124 18.1041 23.1816 17.8965C23.32 17.3428 23.4584 16.9276 23.8044 16.9276C24.0813 16.9276 24.1505 17.2736 24.0121 17.8273ZM25.1886 17.8273C25.327 17.1352 25.2578 16.7892 25.0502 16.5816C24.7733 16.3047 24.3581 16.1663 23.9429 16.1663C23.666 16.1663 23.0432 16.1663 22.5587 16.6508C22.2127 16.9968 22.0051 17.412 21.9359 17.8273C21.8667 18.2425 21.7283 19.073 22.4203 19.3498C22.6279 19.419 22.974 19.4882 23.1816 19.4882C23.7352 19.4882 24.2889 19.3498 24.6349 18.9346C25.0502 18.5886 25.1886 18.0349 25.1886 17.8273Z" fill="white"/>
<path d="M36.5384 19.4882C35.9847 19.4882 35.8463 19.4882 35.2927 19.4882V19.419C35.4311 18.8654 35.5695 18.3809 35.7079 17.8273C35.8463 17.1352 35.9155 16.8584 35.9847 16.4432L36.0539 16.374C36.6076 16.3047 36.746 16.3047 37.3688 16.1663V16.2355C37.2304 16.6508 37.1612 17.1352 37.0228 17.5505C36.746 18.5193 36.6768 19.0038 36.5384 19.4882Z" fill="white"/>
<path d="M35.7079 17.8273C35.7079 17.9657 35.5695 18.3809 35.4311 18.5885C35.3619 18.7269 35.085 18.7962 34.9466 18.7962C34.8774 18.7962 34.6698 18.7962 34.6698 18.4501C34.6698 18.3117 34.6698 18.1041 34.739 17.8965C34.8774 17.3428 35.0158 16.9276 35.3619 16.9276C35.7079 16.9968 35.8463 17.3428 35.7079 17.8273ZM36.8152 17.8965C36.9536 17.2044 36.3307 17.8273 36.1923 17.6197C36.0539 17.2736 36.1231 16.5124 35.5003 16.2355C35.2234 16.1663 34.6698 16.2355 34.1854 16.72C33.8393 17.066 33.6317 17.4812 33.5625 17.8965C33.4933 18.3117 33.3549 19.1422 34.0469 19.419C34.2546 19.4882 34.4622 19.5574 34.6698 19.5574C35.3619 19.4882 35.9155 18.4501 36.3307 17.9657C36.746 17.6197 36.8152 18.1041 36.8152 17.8965Z" fill="white"/>
<path d="M28.372 19.419C27.8876 19.419 27.7492 19.419 27.1955 19.419V19.3498C27.2647 19.1422 27.2647 18.9346 27.3339 18.7269L27.4031 18.4501C27.4724 18.1041 27.6108 17.5504 27.6108 17.412C27.6108 17.3428 27.68 17.066 27.4031 17.066C27.2647 17.066 27.1955 17.1352 27.0571 17.2044C26.9879 17.412 26.8495 18.1041 26.7803 18.3809C26.6419 19.0038 26.6419 19.073 26.5727 19.419L26.5035 19.4882C26.019 19.4882 25.8806 19.4882 25.327 19.4882V19.419C25.3962 19.073 25.5346 18.6577 25.6038 18.3117C25.8114 17.2736 25.8806 16.9276 25.9498 16.3739L26.019 16.3047C26.5727 16.2355 26.7111 16.2355 27.2647 16.0971L27.3339 16.1663L27.2647 16.5123C27.3339 16.4431 27.4724 16.3739 27.5416 16.3047C27.8184 16.1663 28.0952 16.0971 28.3028 16.0971C28.5797 16.0971 28.8565 16.1663 28.9257 16.4431C29.0641 16.72 28.9949 16.9968 28.7873 17.6888L28.7181 18.1041C28.5797 18.7961 28.5104 18.9346 28.372 19.419Z" fill="white"/>
<path d="M32.386 13.8825H31.9708C30.9327 13.8825 30.5867 13.8825 30.379 13.8825C30.379 13.9517 30.3098 14.0901 30.3098 14.0901L29.9638 15.7511C29.9638 15.7511 29.1333 19.2806 29.0641 19.4882C29.9638 19.4882 30.3098 19.4882 30.4482 19.4882C30.5174 19.3498 30.6559 18.3117 30.6559 18.3117L30.8635 17.5504C30.8635 17.5504 30.9327 17.4812 31.0019 17.412H31.0711C31.8324 17.412 32.6628 17.412 33.3549 16.9276C33.8393 16.5816 34.1162 16.0971 34.2546 15.4743C34.3238 15.3358 34.3238 15.1282 34.3238 14.9898C34.3238 14.7822 34.2546 14.5054 34.1162 14.367C33.9085 13.8825 33.2165 13.8825 32.386 13.8825ZM32.9397 15.6127C32.8705 15.9587 32.5936 16.3047 32.3168 16.4431C32.04 16.5816 31.7632 16.5816 31.4171 16.5816H31.2095V16.5123C31.2095 16.5123 31.6247 14.8514 31.5555 14.8514V14.7822V14.713H31.694C31.694 14.713 32.4552 14.7822 32.5244 14.7822C32.8705 14.9206 33.0089 15.1974 32.9397 15.6127Z" fill="white"/>
<path d="M41.1752 16.2355C40.5523 16.3047 40.4831 16.3047 39.9295 16.3739L39.8603 16.4432C39.4451 17.3428 39.4451 17.1352 39.1682 17.8965V17.8273L39.099 16.3047L39.0298 16.2355C38.407 16.3739 38.407 16.3739 37.8533 16.4432L37.7841 16.5124V16.5816C37.8533 16.9276 37.8533 16.8584 37.9225 17.412C37.9225 17.6889 37.9917 17.9657 38.0609 18.2425C38.1301 18.727 38.1301 18.9346 38.1993 19.6266C37.8533 20.2495 37.7149 20.4571 37.3689 21.0108V21.08C37.9225 21.08 38.0609 21.08 38.407 21.08L38.4762 21.0108C38.8222 20.1803 41.1752 16.2355 41.1752 16.2355Z" fill="white"/>
<path d="M21.5207 16.5815C21.7975 16.3739 21.8667 16.0971 21.5899 15.8895C21.313 15.7511 20.8978 15.7511 20.5518 16.0279C20.2749 16.2355 20.2057 16.5123 20.4826 16.7199C20.7594 16.8584 21.2438 16.7891 21.5207 16.5815Z" fill="white"/>
<path d="M38.4762 20.8723L37.9917 21.6336C37.8533 21.9104 37.5765 22.1181 37.1612 22.1181H36.4692L36.6768 21.426H36.8152C36.8844 21.426 36.9536 21.426 36.9536 21.426C37.0228 21.426 37.0228 21.3568 37.0228 21.3568L37.2997 20.9416H38.4762V20.8723Z" fill="white"/>
</svg>
