<?xml version="1.0" encoding="UTF-8"?>
<svg width="52px" height="40px" viewBox="0 0 52 40" version="1.1" xmlns="http://www.w3.org/2000/svg" xmlns:xlink="http://www.w3.org/1999/xlink">
    <!-- Generator: Sketch 58 (84663) - https://sketch.com -->
    <title>Visa</title>
    <desc>Created with Sketch.</desc>
    <defs>
        <linearGradient x1="0%" y1="49.9700573%" x2="100%" y2="49.9700573%" id="linearGradient-1">
            <stop stop-color="#231F5C" offset="0%"></stop>
            <stop stop-color="#034EA2" offset="100%"></stop>
        </linearGradient>
    </defs>
    <g id="Hotel_User_part_UI" stroke="none" stroke-width="1" fill="none" fill-rule="evenodd">
        <g id="Search_Results_modify_01" transform="translate(-450.000000, -1938.000000)">
            <g id="Navigation/Footers/v1" transform="translate(0.000000, 1629.000000)">
                <g id="Footer">
                    <g id="Details" transform="translate(165.000000, 271.000000)">
                        <g id="Links" transform="translate(285.000000, 0.000000)">
                            <g id="Group-5" transform="translate(0.000000, 38.000000)">
                                <g id="Visa">
                                    <rect id="Rectangle" stroke-opacity="0.36" stroke="#9DADBC" fill="#FFFFFF" x="0.5" y="0.5" width="50.8299984" height="38.0499988" rx="2.12999994"></rect>
                                    <g id="visa-seeklogo.com" transform="translate(6.000000, 13.000000)" fill="url(#linearGradient-1)" fill-rule="nonzero">
                                        <path d="M14.5363636,0.212727273 L9.51954545,12.1786364 L6.25772727,12.1786364 L3.79363636,2.64136364 C3.65181818,2.05636364 3.51,1.84363636 3.06681818,1.59545455 C2.30454545,1.18772727 1.08136364,0.797727273 0,0.567272727 L0.0709090909,0.212727273 L5.33590909,0.212727273 C6.00954545,0.212727273 6.61227273,0.655909091 6.75409091,1.43590909 L8.06590909,8.34954545 L11.2922727,0.212727273 L14.5363636,0.212727273 Z M27.3531818,8.27863636 C27.3709091,5.12318182 22.9922727,4.94590909 23.01,3.54545455 C23.0277273,3.12 23.4354545,2.65909091 24.3218182,2.535 C24.765,2.48181818 25.9881818,2.42863636 27.3709091,3.06681818 L27.9204545,0.531818182 C27.1759091,0.265909091 26.2186364,0 25.0309091,0 C21.9818182,0 19.8190909,1.63090909 19.8013636,3.95318182 C19.7836364,5.67272727 21.3436364,6.63 22.5136364,7.215 C23.7190909,7.8 24.1268182,8.17227273 24.1268182,8.70409091 C24.1090909,9.50181818 23.1695455,9.85636364 22.2831818,9.87409091 C20.7231818,9.89181818 19.8190909,9.44863636 19.11,9.11181818 L18.5427273,11.7354545 C19.2695455,12.0722727 20.5990909,12.3559091 21.9818182,12.3736364 C25.2259091,12.3736364 27.3354545,10.7604545 27.3531818,8.27863636 M35.4368182,12.1786364 L38.2909091,12.1786364 L35.7913636,0.212727273 L33.15,0.212727273 C32.5472727,0.212727273 32.0509091,0.549545455 31.8381818,1.08136364 L27.1936364,12.1609091 L30.4377273,12.1609091 L31.0759091,10.3704545 L35.0468182,10.3704545 L35.4368182,12.1786364 Z M31.98,7.94181818 L33.6109091,3.45681818 L34.5504545,7.94181818 L31.98,7.94181818 Z M18.9504545,0.212727273 L16.3977273,12.1786364 L13.3131818,12.1786364 L15.8659091,0.212727273 L18.9504545,0.212727273 Z" id="Shape"></path>
                                    </g>
                                </g>
                            </g>
                        </g>
                    </g>
                </g>
            </g>
        </g>
    </g>
</svg>